<svg xmlns="http://www.w3.org/2000/svg" viewBox="0 0 600 240"><defs>
<linearGradient id="bg" x2="1" y2="1"><stop stop-color="#eff5fa"/><stop offset="1" stop-color="#c9d9e7"/></linearGradient>
<linearGradient id="metal" x2="0.8" y2="1"><stop stop-color="#c7d2db"/><stop offset="0.5" stop-color="#879cad"/><stop offset="1" stop-color="#526d82"/></linearGradient>
<linearGradient id="blue" x2="1" y2="1"><stop stop-color="#4183bc"/><stop offset="1" stop-color="#143b5d"/></linearGradient>
<linearGradient id="paper" x2="1" y2="1"><stop stop-color="#fff"/><stop offset="1" stop-color="#dce7f0"/></linearGradient>
<linearGradient id="gold" x2="1" y2="1"><stop stop-color="#dfbe74"/><stop offset="1" stop-color="#977239"/></linearGradient>
<pattern id="grid" width="28" height="28" patternUnits="userSpaceOnUse"><path d="M28 0H0V28" fill="none" stroke="#829fba" stroke-opacity=".2" stroke-width=".8"/></pattern>
<pattern id="carbon" width="14" height="14" patternUnits="userSpaceOnUse"><rect width="14" height="14" fill="#263946"/><path d="M0 3h7M7 10h7" stroke="#7d939f" stroke-width="3"/></pattern>
<filter id="shadow" x="-30%" y="-30%" width="160%" height="170%"><feDropShadow dx="0" dy="8" stdDeviation="7" flood-color="#1b3c59" flood-opacity=".2"/></filter>
</defs><rect width="600" height="240" fill="url(#bg)"/><rect width="600" height="240" fill="url(#grid)"/><g transform="translate(52,36)" filter="url(#shadow)"><path d="m0 73 67-36 77 34-68 38Z" fill="url(#metal)"/><path d="M0 73v65l76 37v-66Z" fill="#7893a8"/><path d="m76 109 68-38v65l-68 39Z" fill="#48677f"/><ellipse cx="55" cy="78" rx="19" ry="11" fill="#37566d"/><path d="m99 53 0-35 34-18 33 17v56l-32 19Z" fill="url(#metal)"/><ellipse cx="132" cy="29" rx="14" ry="16" fill="#37556e"/></g><g transform="translate(303,62)"><path d="M0 139H203M8 140 100 97l92 43M100 97V29M59 29h82" stroke="#5b7993" stroke-width="2" fill="none"/><path d="M55 36 21 99h69ZM145 36l-33 63h69Z" fill="#e6f0f8" fill-opacity=".7" stroke="#7c9ab2"/><path d="M27 99q29 26 58 0M117 99q29 26 58 0" fill="url(#metal)" stroke="#6e8ca4"/><circle cx="100" cy="29" r="9" fill="#476c8b"/><path d="M60 29h80" stroke="#476c8b" stroke-width="4"/></g></svg>