<svg xmlns="http://www.w3.org/2000/svg" width="800" height="400" viewBox="0 0 800 400"><defs>
<linearGradient id="metal" x1="0" y1="0" x2="1" y2="1"><stop stop-color="#e2e9ed"/><stop offset=".45" stop-color="#a7b9c6"/><stop offset="1" stop-color="#728d9e"/></linearGradient>
<linearGradient id="blue" x1="0" y1="0" x2="1" y2="1"><stop stop-color="#8aaec9"/><stop offset="1" stop-color="#2d6289"/></linearGradient>
<linearGradient id="gold"><stop stop-color="#ceab71"/><stop offset=".45" stop-color="#ebd1a0"/><stop offset="1" stop-color="#9d804d"/></linearGradient>
<pattern id="grid" width="30" height="30" patternUnits="userSpaceOnUse"><path d="M30 0H0V30" fill="none" stroke="#8ba7bd" stroke-width=".5" opacity=".27"/></pattern>
<pattern id="fine" width="9" height="9" patternUnits="userSpaceOnUse"><path d="M9 0H0V9M0 9 9 0" fill="none" stroke="#a8d2ee" stroke-width=".6" opacity=".8"/></pattern>
<pattern id="carbon" width="18" height="18" patternUnits="userSpaceOnUse"><path fill="#33424a" d="M0 0h18v18H0z"/><path fill="#4b5c64" d="M0 0h9v9H0zM9 9h9v9H9z"/><path stroke="#6a7d84" opacity=".5" d="M0 3h9M0 6h9M9 12h9M9 15h9"/></pattern>
<filter id="shadow" x="-30%" y="-30%" width="170%" height="190%"><feDropShadow dx="4" dy="10" stdDeviation="9" flood-color="#23475f" flood-opacity=".17"/></filter>
<marker id="arrow" markerWidth="6" markerHeight="6" refX="5" refY="3" orient="auto-start-reverse"><path d="m0 0 6 3-6 3" fill="none" stroke="#537891" stroke-width="1"/></marker>
</defs><rect width="800" height="400" fill="#eff0f5"/><rect width="800" height="400" fill="url(#grid)"/><g transform="translate(395 63) rotate(9 130 130)"><rect width="231" height="272" fill="#d7e5ee" stroke="#9bb3c5"/><path d="M20 66h174v158H20Z" fill="#bacfe0" stroke="#7093af"/><path d="M20 66h174v158H20Z" fill="url(#fine)"/><circle cx="107" cy="145" r="35" fill="#d7e5ee" stroke="#7397b2"/><path d="M23 236h160m-160 8v-16m160 16v-16" stroke="#7397b2"/><text x="29" y="38" font-family="Consolas,monospace" font-size="12" fill="#58778e" >MODEL / MESH</text></g><g transform="translate(142 48) rotate(-5 140 145)" filter="url(#shadow)"><rect width="263" height="305" rx="7" fill="#6d8599"/><rect x="10" y="14" width="243" height="281" rx="3" fill="#fafcfd"/><rect x="76" y="-7" width="110" height="35" rx="7" fill="#a9bac8" stroke="#6c8498"/><rect x="110" y="-3" width="44" height="13" rx="6" fill="#eff4f7"/><text x="27" y="64" font-family="Consolas,monospace" font-size="12" fill="#58778e" >PRE-RUN / MODEL CHECKS</text><rect x="28" y="92" width="17" height="17" rx="2" fill="#ecf3f9" stroke="#7a99b1"/><path d="m31 101 4 4 8-10" fill="none" stroke="#386787" stroke-width="2"/><text x="58" y="105" font-family="Consolas,monospace" font-size="12" fill="#3d596f" >Geometry</text><rect x="28" y="128" width="17" height="17" rx="2" fill="#ecf3f9" stroke="#7a99b1"/><path d="m31 137 4 4 8-10" fill="none" stroke="#386787" stroke-width="2"/><text x="58" y="141" font-family="Consolas,monospace" font-size="12" fill="#3d596f" >Material assignment</text><rect x="28" y="164" width="17" height="17" rx="2" fill="#ecf3f9" stroke="#7a99b1"/><path d="m31 173 4 4 8-10" fill="none" stroke="#386787" stroke-width="2"/><text x="58" y="177" font-family="Consolas,monospace" font-size="12" fill="#3d596f" >Contacts</text><rect x="28" y="200" width="17" height="17" rx="2" fill="#ecf3f9" stroke="#7a99b1"/><path d="m31 209 4 4 8-10" fill="none" stroke="#386787" stroke-width="2"/><text x="58" y="213" font-family="Consolas,monospace" font-size="12" fill="#3d596f" >Mesh quality</text><rect x="28" y="236" width="17" height="17" rx="2" fill="#ecf3f9" stroke="#7a99b1"/><path d="m31 245 4 4 8-10" fill="none" stroke="#386787" stroke-width="2"/><text x="58" y="249" font-family="Consolas,monospace" font-size="12" fill="#3d596f" >Boundary conditions</text></g><text x="65" y="371" font-family="Consolas,monospace" font-size="10" fill="#58778e" >MODEL READINESS / ILLUSTRATIVE CHECKLIST</text></svg>